<svg xmlns="http://www.w3.org/2000/svg" width="492.9" height="110.0" viewBox="0 0 492.9 110.0"><g transform="translate(0 90.00)"><path d="M26.6 1.2Q18.3 1.2 12.05 -2.9Q5.8 -7 3.3 -13.9L12 -18Q14.2 -13.4 18.05 -10.7Q21.9 -8 26.6 -8Q30.6 -8 33.1 -9.8Q35.6 -11.6 35.6 -14.7Q35.6 -16.7 34.5 -17.95Q33.4 -19.2 31.75 -20Q30.1 -20.8 28.4 -21.2L19.9 -23.6Q12.9 -25.6 9.45 -29.65Q6 -33.7 6 -39.1Q6 -44 8.5 -47.65Q11 -51.3 15.4 -53.3Q19.8 -55.3 25.3 -55.3Q32.7 -55.3 38.5 -51.65Q44.3 -48 46.7 -41.5L38 -37.4Q36.4 -41.3 32.95 -43.6Q29.5 -45.9 25.2 -45.9Q21.5 -45.9 19.3 -44.15Q17.1 -42.4 17.1 -39.6Q17.1 -37.7 18.1 -36.45Q19.1 -35.2 20.7 -34.45Q22.3 -33.7 24 -33.2L32.8 -30.6Q39.5 -28.7 43.1 -24.65Q46.7 -20.6 46.7 -15Q46.7 -10.2 44.15 -6.55Q41.6 -2.9 37.1 -0.85Q32.6 1.2 26.6 1.2ZM56.3 0V-54.1H67.1V-42.4L65.7 -44.2Q67.4 -49.7 71.9 -52.5Q76.4 -55.3 82.2 -55.3Q88.7 -55.3 93.75 -51.85Q98.8 -48.4 100.5 -42.7L97.3 -42.4Q99.7 -48.9 104.65 -52.1Q109.6 -55.3 116 -55.3Q121.6 -55.3 126.15 -52.7Q130.7 -50.1 133.4 -45.5Q136.1 -40.9 136.1 -35V0H124.8V-31.9Q124.8 -36 123.35 -38.85Q121.9 -41.7 119.35 -43.25Q116.8 -44.8 113.4 -44.8Q110 -44.8 107.4 -43.25Q104.8 -41.7 103.3 -38.8Q101.8 -35.9 101.8 -31.9V0H90.6V-31.9Q90.6 -36 89.15 -38.85Q87.7 -41.7 85.15 -43.25Q82.6 -44.8 79.1 -44.8Q75.7 -44.8 73.1 -43.25Q70.5 -41.7 69.05 -38.8Q67.6 -35.9 67.6 -31.9V0ZM162.9 1.2Q157.4 1.2 153.25 -0.75Q149.1 -2.7 146.8 -6.15Q144.5 -9.6 144.5 -14.3Q144.5 -18.7 146.45 -22.2Q148.4 -25.7 152.5 -28.1Q156.6 -30.5 162.8 -31.5L181.6 -34.6V-25.7L165 -22.8Q160.5 -22 158.4 -19.95Q156.3 -17.9 156.3 -14.7Q156.3 -11.6 158.65 -9.65Q161 -7.7 164.7 -7.7Q169.3 -7.7 172.75 -9.7Q176.2 -11.7 178.1 -15.05Q180 -18.4 180 -22.5V-36.4Q180 -40.4 177.05 -42.95Q174.1 -45.5 169.2 -45.5Q164.7 -45.5 161.35 -43.15Q158 -40.8 156.4 -37.1L147 -41.8Q148.5 -45.8 151.9 -48.85Q155.3 -51.9 159.85 -53.6Q164.4 -55.3 169.5 -55.3Q175.9 -55.3 180.85 -52.9Q185.8 -50.5 188.55 -46.25Q191.3 -42 191.3 -36.4V0H180.5V-9.8L182.8 -9.5Q180.9 -6.2 177.95 -3.8Q175 -1.4 171.25 -0.1Q167.5 1.2 162.9 1.2ZM203 0V-54.1H213.8V-43.2L212.8 -44.8Q214.6 -50.1 218.6 -52.45Q222.6 -54.8 228.2 -54.8H231.5V-44.5H226.8Q221.2 -44.5 217.75 -41.05Q214.3 -37.6 214.3 -31.2V0ZM262.1 0.6Q253.6 0.6 248.9 -4.2Q244.2 -9 244.2 -17.7V-43.9H234.7V-54.1H236.2Q240 -54.1 242.1 -56.3Q244.2 -58.5 244.2 -62.3V-66.5H255.5V-54.1H267.8V-43.9H255.5V-18.2Q255.5 -15.4 256.4 -13.45Q257.3 -11.5 259.3 -10.45Q261.3 -9.4 264.5 -9.4Q265.3 -9.4 266.3 -9.5Q267.3 -9.6 268.2 -9.7V0Q266.8 0.2 265.1 0.4Q263.4 0.6 262.1 0.6ZM297.7 1.2Q289.4 1.2 283.15 -2.9Q276.9 -7 274.4 -13.9L283.1 -18Q285.3 -13.4 289.15 -10.7Q293 -8 297.7 -8Q301.7 -8 304.2 -9.8Q306.7 -11.6 306.7 -14.7Q306.7 -16.7 305.6 -17.95Q304.5 -19.2 302.85 -20Q301.2 -20.8 299.5 -21.2L291 -23.6Q284 -25.6 280.55 -29.65Q277.1 -33.7 277.1 -39.1Q277.1 -44 279.6 -47.65Q282.1 -51.3 286.5 -53.3Q290.9 -55.3 296.4 -55.3Q303.8 -55.3 309.6 -51.65Q315.4 -48 317.8 -41.5L309.1 -37.4Q307.5 -41.3 304.05 -43.6Q300.6 -45.9 296.3 -45.9Q292.6 -45.9 290.4 -44.15Q288.2 -42.4 288.2 -39.6Q288.2 -37.7 289.2 -36.45Q290.2 -35.2 291.8 -34.45Q293.4 -33.7 295.1 -33.2L303.9 -30.6Q310.6 -28.7 314.2 -24.65Q317.8 -20.6 317.8 -15Q317.8 -10.2 315.25 -6.55Q312.7 -2.9 308.2 -0.85Q303.7 1.2 297.7 1.2ZM331.2 22Q329.2 22 327.25 21.65Q325.3 21.3 323.7 20.6V10.9Q324.9 11.2 326.6 11.45Q328.3 11.7 329.9 11.7Q334.6 11.7 336.85 9.65Q339.1 7.6 340.9 3.4L344.5 -4.8L344.3 4.7L320.9 -54.1H333L350.3 -9H346.2L363.4 -54.1H375.6L351.7 5.9Q349.8 10.7 346.95 14.35Q344.1 18 340.25 20Q336.4 22 331.2 22ZM381.8 0V-54.1H392.6V-43.5L391.3 -44.9Q393.3 -50 397.7 -52.65Q402.1 -55.3 407.9 -55.3Q413.9 -55.3 418.5 -52.7Q423.1 -50.1 425.7 -45.5Q428.3 -40.9 428.3 -34.9V0H417.1V-31.9Q417.1 -36 415.6 -38.85Q414.1 -41.7 411.35 -43.25Q408.6 -44.8 405.1 -44.8Q401.6 -44.8 398.85 -43.25Q396.1 -41.7 394.6 -38.8Q393.1 -35.9 393.1 -31.9V0ZM464.6 1.2Q456.5 1.2 450.25 -2.55Q444 -6.3 440.35 -12.7Q436.7 -19.1 436.7 -27.2Q436.7 -35.2 440.3 -41.6Q443.9 -48 450.2 -51.65Q456.5 -55.3 464.6 -55.3Q470.1 -55.3 474.9 -53.35Q479.7 -51.4 483.25 -48Q486.8 -44.6 488.5 -40.1L478.6 -35.5Q476.9 -39.7 473.15 -42.25Q469.4 -44.8 464.6 -44.8Q460 -44.8 456.35 -42.55Q452.7 -40.3 450.6 -36.25Q448.5 -32.2 448.5 -27.1Q448.5 -22 450.6 -17.95Q452.7 -13.9 456.35 -11.6Q460 -9.3 464.6 -9.3Q469.5 -9.3 473.15 -11.85Q476.8 -14.4 478.6 -18.7L488.5 -14Q486.9 -9.7 483.35 -6.25Q479.8 -2.8 475 -0.8Q470.2 1.2 464.6 1.2Z" fill="#f3ede4"/></g></svg>